<?xml version="1.0" encoding="UTF-8"?>
<svg width="3271px" height="492px" viewBox="0 0 3271 492" version="1.1" xmlns="http://www.w3.org/2000/svg" xmlns:xlink="http://www.w3.org/1999/xlink">
    <title>Logo</title>
    <g id="Page-1" stroke="none" stroke-width="1" fill="none" fill-rule="evenodd">
        <g id="Logos-SVG-Export" transform="translate(-365.000000, -754.000000)">
            <g id="Logo" transform="translate(365.000000, 754.000000)">
                <path d="M50.193,216.7545 C54.756,216.7545 59.05575,215.90625 63.09225,214.20975 C67.12875,212.51325 70.668,210.23175 73.71,207.36525 C76.752,204.49875 79.1505,201.16425 80.9055,197.36175 C82.6605,193.55925 83.538,189.4935 83.538,185.1645 C83.538,180.7185 82.6605,176.565 80.9055,172.704 C79.1505,168.843 76.752,165.45 73.71,162.525 C70.668,159.6 67.12875,157.3185 63.09225,155.6805 C59.05575,154.0425 54.756,153.2235 50.193,153.2235 C45.747,153.2235 41.5935,154.0425 37.7325,155.6805 C33.8715,157.3185 30.44925,159.6 27.46575,162.525 C24.48225,165.45 22.14225,168.843 20.44575,172.704 C18.74925,176.565 17.901,180.7185 17.901,185.1645 C17.901,189.4935 18.74925,193.55925 20.44575,197.36175 C22.14225,201.16425 24.48225,204.49875 27.46575,207.36525 C30.44925,210.23175 33.8715,212.51325 37.7325,214.20975 C41.5935,215.90625 45.747,216.7545 50.193,216.7545 Z M77.22,417 L77.22,235.0065 L22.815,235.0065 L22.815,417 L77.22,417 Z M166.5,417 L166.5,287.3055 C171.297,282.9765 176.328,279.525 181.593,276.951 C186.858,274.377 192.474,273.09 198.441,273.09 C206.397,273.09 212.4225,275.57625 216.5175,280.54875 C220.6125,285.52125 222.66,292.4535 222.66,301.3455 L222.66,301.3455 L222.66,417 L277.065,417 L277.065,301.3455 C277.065,291.4005 275.7195,282.18675 273.0285,273.70425 C270.3375,265.22175 266.3595,257.90925 261.0945,251.76675 C255.8295,245.62425 249.36525,240.82725 241.70175,237.37575 C234.03825,233.92425 225.234,232.1985 215.289,232.1985 C209.439,232.1985 204.02775,232.75425 199.05525,233.86575 C194.08275,234.97725 189.46125,236.49825 185.19075,238.42875 C180.92025,240.35925 176.913,242.7285 173.169,245.5365 C169.425,248.3445 165.798,251.3865 162.288,254.6625 L162.288,254.6625 L159.129,244.1325 C158.193,241.0905 156.58425,238.809 154.30275,237.288 C152.02125,235.767 149.184,235.0065 145.791,235.0065 L145.791,235.0065 L112.095,235.0065 L112.095,417 L166.5,417 Z M360.378,419.808 C366.579,419.808 372.34125,419.19375 377.66475,417.96525 C382.98825,416.73675 387.96075,414.98175 392.58225,412.70025 C397.20375,410.41875 401.5035,407.6985 405.4815,404.5395 C409.4595,401.3805 413.262,397.8705 416.889,394.0095 L416.889,394.0095 L421.101,407.874 C422.037,410.916 423.64575,413.1975 425.92725,414.7185 C428.20875,416.2395 431.046,417 434.439,417 L434.439,417 L468.135,417 L468.135,154.2765 L413.73,154.2765 L413.73,246.414 C408.465,241.968 402.58575,238.37025 396.09225,235.62075 C389.59875,232.87125 381.672,231.4965 372.312,231.4965 C360.729,231.4965 350.1405,233.895 340.5465,238.692 C330.9525,243.489 322.73325,250.12875 315.88875,258.61125 C309.04425,267.09375 303.75,277.15575 300.006,288.79725 C296.262,300.43875 294.39,313.0455 294.39,326.6175 C294.39,341.3595 296.05725,354.49275 299.39175,366.01725 C302.72625,377.54175 307.3185,387.282 313.1685,395.238 C319.0185,403.194 325.98,409.278 334.053,413.49 C342.126,417.702 350.901,419.808 360.378,419.808 Z M379.332,378.039 C375.003,378.039 371.0835,377.1615 367.5735,375.4065 C364.0635,373.6515 361.05075,370.75575 358.53525,366.71925 C356.01975,362.68275 354.06,357.3885 352.656,350.8365 C351.252,344.2845 350.55,336.2115 350.55,326.6175 C350.55,316.6725 351.4275,308.19 353.1825,301.17 C354.9375,294.15 357.36525,288.44625 360.46575,284.05875 C363.56625,279.67125 367.2225,276.483 371.4345,274.494 C375.6465,272.505 380.268,271.5105 385.299,271.5105 C390.564,271.5105 395.56575,272.41725 400.30425,274.23075 C405.04275,276.04425 409.518,279.2325 413.73,283.7955 L413.73,283.7955 L413.73,361.0155 C411.39,363.8235 409.02075,366.2805 406.62225,368.3865 C404.22375,370.4925 401.679,372.2475 398.988,373.6515 C396.297,375.0555 393.34275,376.13775 390.12525,376.89825 C386.90775,377.65875 383.31,378.039 379.332,378.039 Z M581.634,419.808 C587.835,419.808 594.35775,419.36925 601.20225,418.49175 C608.04675,417.61425 614.89125,416.03475 621.73575,413.75325 C628.58025,411.47175 635.24925,408.31275 641.74275,404.27625 C648.23625,400.23975 654.291,395.004 659.907,388.569 L659.907,388.569 L644.112,369.0885 C641.889,365.9295 638.613,364.35 634.284,364.35 C631.008,364.35 627.87825,365.1105 624.89475,366.6315 C621.91125,368.1525 618.63525,369.849 615.06675,371.721 C611.49825,373.593 607.4325,375.2895 602.8695,376.8105 C598.3065,378.3315 592.866,379.092 586.548,379.092 C574.731,379.092 565.0785,375.66975 557.5905,368.82525 C550.1025,361.98075 545.481,350.9535 543.726,335.7435 L543.726,335.7435 L648.675,335.7435 C651.132,335.7435 653.15025,335.451 654.72975,334.866 C656.30925,334.281 657.567,333.228 658.503,331.707 C659.439,330.186 660.0825,328.1385 660.4335,325.5645 C660.7845,322.9905 660.96,319.656 660.96,315.561 C660.96,302.457 658.94175,290.72775 654.90525,280.37325 C650.86875,270.01875 645.25275,261.273 638.05725,254.136 C630.86175,246.999 622.26225,241.5585 612.25875,237.8145 C602.25525,234.0705 591.228,232.1985 579.177,232.1985 C565.254,232.1985 552.76425,234.597 541.70775,239.394 C530.65125,244.191 521.23275,250.6845 513.45225,258.8745 C505.67175,267.0645 499.70475,276.6 495.55125,287.481 C491.39775,298.362 489.321,309.8865 489.321,322.0545 C489.321,338.2005 491.74875,352.3575 496.60425,364.5255 C501.45975,376.6935 508.07025,386.8725 516.43575,395.0625 C524.80125,403.2525 534.57075,409.42425 545.74425,413.57775 C556.91775,417.73125 568.881,419.808 581.634,419.808 Z M612.171,304.1535 L544.2525,304.1535 C546.1245,293.0385 549.9855,284.52675 555.8355,278.61825 C561.6855,272.70975 569.817,269.7555 580.23,269.7555 C586.08,269.7555 591.0525,270.75 595.1475,272.739 C599.2425,274.728 602.54775,277.33125 605.06325,280.54875 C607.57875,283.76625 609.39225,287.4225 610.50375,291.5175 C611.61525,295.6125 612.171,299.8245 612.171,304.1535 L612.171,304.1535 Z M737.604,474.7395 L737.604,404.8905 C742.869,409.4535 748.719,413.0805 755.154,415.7715 C761.589,418.4625 769.545,419.808 779.022,419.808 C790.605,419.808 801.16425,417.4095 810.69975,412.6125 C820.23525,407.8155 828.42525,401.1465 835.26975,392.6055 C842.11425,384.0645 847.43775,374.0025 851.24025,362.4195 C855.04275,350.8365 856.944,338.2005 856.944,324.5115 C856.944,309.8865 855.27675,296.81175 851.94225,285.28725 C848.60775,273.76275 844.0155,264.0225 838.1655,256.0665 C832.3155,248.1105 825.354,242.0265 817.281,237.8145 C809.208,233.6025 800.433,231.4965 790.956,231.4965 C784.638,231.4965 778.81725,232.14 773.49375,233.427 C768.17025,234.714 763.19775,236.49825 758.57625,238.77975 C753.95475,241.06125 749.62575,243.7815 745.58925,246.9405 C741.55275,250.0995 737.7795,253.6095 734.2695,257.4705 L734.2695,257.4705 L730.233,244.1325 C729.297,241.0905 727.68825,238.809 725.40675,237.288 C723.12525,235.767 720.288,235.0065 716.895,235.0065 L716.895,235.0065 L683.199,235.0065 L683.199,474.7395 L737.604,474.7395 Z M766.035,379.794 C760.77,379.794 755.739,378.88725 750.942,377.07375 C746.145,375.26025 741.699,372.072 737.604,367.509 L737.604,367.509 L737.604,290.289 C739.944,287.481 742.284,284.99475 744.624,282.83025 C746.964,280.66575 749.50875,278.8815 752.25825,277.4775 C755.00775,276.0735 757.99125,274.99125 761.20875,274.23075 C764.42625,273.47025 768.024,273.09 772.002,273.09 C776.331,273.09 780.2505,273.9675 783.7605,275.7225 C787.2705,277.4775 790.28325,280.37325 792.79875,284.40975 C795.31425,288.44625 797.274,293.7405 798.678,300.2925 C800.082,306.8445 800.784,314.9175 800.784,324.5115 C800.784,334.5735 799.9065,343.1145 798.1515,350.1345 C796.3965,357.1545 793.96875,362.85825 790.86825,367.24575 C787.76775,371.63325 784.1115,374.8215 779.8995,376.8105 C775.6875,378.7995 771.066,379.794 766.035,379.794 Z M957.456,419.808 C963.657,419.808 970.17975,419.36925 977.02425,418.49175 C983.86875,417.61425 990.71325,416.03475 997.55775,413.75325 C1004.40225,411.47175 1011.07125,408.31275 1017.56475,404.27625 C1024.05825,400.23975 1030.113,395.004 1035.729,388.569 L1035.729,388.569 L1019.934,369.0885 C1017.711,365.9295 1014.435,364.35 1010.106,364.35 C1006.83,364.35 1003.70025,365.1105 1000.71675,366.6315 C997.73325,368.1525 994.45725,369.849 990.88875,371.721 C987.32025,373.593 983.2545,375.2895 978.6915,376.8105 C974.1285,378.3315 968.688,379.092 962.37,379.092 C950.553,379.092 940.9005,375.66975 933.4125,368.82525 C925.9245,361.98075 921.303,350.9535 919.548,335.7435 L919.548,335.7435 L1024.497,335.7435 C1026.954,335.7435 1028.97225,335.451 1030.55175,334.866 C1032.13125,334.281 1033.389,333.228 1034.325,331.707 C1035.261,330.186 1035.9045,328.1385 1036.2555,325.5645 C1036.6065,322.9905 1036.782,319.656 1036.782,315.561 C1036.782,302.457 1034.76375,290.72775 1030.72725,280.37325 C1026.69075,270.01875 1021.07475,261.273 1013.87925,254.136 C1006.68375,246.999 998.08425,241.5585 988.08075,237.8145 C978.07725,234.0705 967.05,232.1985 954.999,232.1985 C941.076,232.1985 928.58625,234.597 917.52975,239.394 C906.47325,244.191 897.05475,250.6845 889.27425,258.8745 C881.49375,267.0645 875.52675,276.6 871.37325,287.481 C867.21975,298.362 865.143,309.8865 865.143,322.0545 C865.143,338.2005 867.57075,352.3575 872.42625,364.5255 C877.28175,376.6935 883.89225,386.8725 892.25775,395.0625 C900.62325,403.2525 910.39275,409.42425 921.56625,413.57775 C932.73975,417.73125 944.703,419.808 957.456,419.808 Z M987.993,304.1535 L920.0745,304.1535 C921.9465,293.0385 925.8075,284.52675 931.6575,278.61825 C937.5075,272.70975 945.639,269.7555 956.052,269.7555 C961.902,269.7555 966.8745,270.75 970.9695,272.739 C975.0645,274.728 978.36975,277.33125 980.88525,280.54875 C983.40075,283.76625 985.21425,287.4225 986.32575,291.5175 C987.43725,295.6125 987.993,299.8245 987.993,304.1535 L987.993,304.1535 Z M1113.426,417 L1113.426,287.3055 C1118.223,282.9765 1123.254,279.525 1128.519,276.951 C1133.784,274.377 1139.4,273.09 1145.367,273.09 C1153.323,273.09 1159.3485,275.57625 1163.4435,280.54875 C1167.5385,285.52125 1169.586,292.4535 1169.586,301.3455 L1169.586,301.3455 L1169.586,417 L1223.991,417 L1223.991,301.3455 C1223.991,291.4005 1222.6455,282.18675 1219.9545,273.70425 C1217.2635,265.22175 1213.2855,257.90925 1208.0205,251.76675 C1202.7555,245.62425 1196.29125,240.82725 1188.62775,237.37575 C1180.96425,233.92425 1172.16,232.1985 1162.215,232.1985 C1156.365,232.1985 1150.95375,232.75425 1145.98125,233.86575 C1141.00875,234.97725 1136.38725,236.49825 1132.11675,238.42875 C1127.84625,240.35925 1123.839,242.7285 1120.095,245.5365 C1116.351,248.3445 1112.724,251.3865 1109.214,254.6625 L1109.214,254.6625 L1106.055,244.1325 C1105.119,241.0905 1103.51025,238.809 1101.22875,237.288 C1098.94725,235.767 1096.11,235.0065 1092.717,235.0065 L1092.717,235.0065 L1059.021,235.0065 L1059.021,417 L1113.426,417 Z M1307.304,419.808 C1313.505,419.808 1319.26725,419.19375 1324.59075,417.96525 C1329.91425,416.73675 1334.88675,414.98175 1339.50825,412.70025 C1344.12975,410.41875 1348.4295,407.6985 1352.4075,404.5395 C1356.3855,401.3805 1360.188,397.8705 1363.815,394.0095 L1363.815,394.0095 L1368.027,407.874 C1368.963,410.916 1370.57175,413.1975 1372.85325,414.7185 C1375.13475,416.2395 1377.972,417 1381.365,417 L1381.365,417 L1415.061,417 L1415.061,154.2765 L1360.656,154.2765 L1360.656,246.414 C1355.391,241.968 1349.51175,238.37025 1343.01825,235.62075 C1336.52475,232.87125 1328.598,231.4965 1319.238,231.4965 C1307.655,231.4965 1297.0665,233.895 1287.4725,238.692 C1277.8785,243.489 1269.65925,250.12875 1262.81475,258.61125 C1255.97025,267.09375 1250.676,277.15575 1246.932,288.79725 C1243.188,300.43875 1241.316,313.0455 1241.316,326.6175 C1241.316,341.3595 1242.98325,354.49275 1246.31775,366.01725 C1249.65225,377.54175 1254.2445,387.282 1260.0945,395.238 C1265.9445,403.194 1272.906,409.278 1280.979,413.49 C1289.052,417.702 1297.827,419.808 1307.304,419.808 Z M1326.258,378.039 C1321.929,378.039 1318.0095,377.1615 1314.4995,375.4065 C1310.9895,373.6515 1307.97675,370.75575 1305.46125,366.71925 C1302.94575,362.68275 1300.986,357.3885 1299.582,350.8365 C1298.178,344.2845 1297.476,336.2115 1297.476,326.6175 C1297.476,316.6725 1298.3535,308.19 1300.1085,301.17 C1301.8635,294.15 1304.29125,288.44625 1307.39175,284.05875 C1310.49225,279.67125 1314.1485,276.483 1318.3605,274.494 C1322.5725,272.505 1327.194,271.5105 1332.225,271.5105 C1337.49,271.5105 1342.49175,272.41725 1347.23025,274.23075 C1351.96875,276.04425 1356.444,279.2325 1360.656,283.7955 L1360.656,283.7955 L1360.656,361.0155 C1358.316,363.8235 1355.94675,366.2805 1353.54825,368.3865 C1351.14975,370.4925 1348.605,372.2475 1345.914,373.6515 C1343.223,375.0555 1340.26875,376.13775 1337.05125,376.89825 C1333.83375,377.65875 1330.236,378.039 1326.258,378.039 Z M1528.56,419.808 C1534.761,419.808 1541.28375,419.36925 1548.12825,418.49175 C1554.97275,417.61425 1561.81725,416.03475 1568.66175,413.75325 C1575.50625,411.47175 1582.17525,408.31275 1588.66875,404.27625 C1595.16225,400.23975 1601.217,395.004 1606.833,388.569 L1606.833,388.569 L1591.038,369.0885 C1588.815,365.9295 1585.539,364.35 1581.21,364.35 C1577.934,364.35 1574.80425,365.1105 1571.82075,366.6315 C1568.83725,368.1525 1565.56125,369.849 1561.99275,371.721 C1558.42425,373.593 1554.3585,375.2895 1549.7955,376.8105 C1545.2325,378.3315 1539.792,379.092 1533.474,379.092 C1521.657,379.092 1512.0045,375.66975 1504.5165,368.82525 C1497.0285,361.98075 1492.407,350.9535 1490.652,335.7435 L1490.652,335.7435 L1595.601,335.7435 C1598.058,335.7435 1600.07625,335.451 1601.65575,334.866 C1603.23525,334.281 1604.493,333.228 1605.429,331.707 C1606.365,330.186 1607.0085,328.1385 1607.3595,325.5645 C1607.7105,322.9905 1607.886,319.656 1607.886,315.561 C1607.886,302.457 1605.86775,290.72775 1601.83125,280.37325 C1597.79475,270.01875 1592.17875,261.273 1584.98325,254.136 C1577.78775,246.999 1569.18825,241.5585 1559.18475,237.8145 C1549.18125,234.0705 1538.154,232.1985 1526.103,232.1985 C1512.18,232.1985 1499.69025,234.597 1488.63375,239.394 C1477.57725,244.191 1468.15875,250.6845 1460.37825,258.8745 C1452.59775,267.0645 1446.63075,276.6 1442.47725,287.481 C1438.32375,298.362 1436.247,309.8865 1436.247,322.0545 C1436.247,338.2005 1438.67475,352.3575 1443.53025,364.5255 C1448.38575,376.6935 1454.99625,386.8725 1463.36175,395.0625 C1471.72725,403.2525 1481.49675,409.42425 1492.67025,413.57775 C1503.84375,417.73125 1515.807,419.808 1528.56,419.808 Z M1559.097,304.1535 L1491.1785,304.1535 C1493.0505,293.0385 1496.9115,284.52675 1502.7615,278.61825 C1508.6115,272.70975 1516.743,269.7555 1527.156,269.7555 C1533.006,269.7555 1537.9785,270.75 1542.0735,272.739 C1546.1685,274.728 1549.47375,277.33125 1551.98925,280.54875 C1554.50475,283.76625 1556.31825,287.4225 1557.42975,291.5175 C1558.54125,295.6125 1559.097,299.8245 1559.097,304.1535 L1559.097,304.1535 Z M1684.53,417 L1684.53,287.3055 C1689.327,282.9765 1694.358,279.525 1699.623,276.951 C1704.888,274.377 1710.504,273.09 1716.471,273.09 C1724.427,273.09 1730.4525,275.57625 1734.5475,280.54875 C1738.6425,285.52125 1740.69,292.4535 1740.69,301.3455 L1740.69,301.3455 L1740.69,417 L1795.095,417 L1795.095,301.3455 C1795.095,291.4005 1793.7495,282.18675 1791.0585,273.70425 C1788.3675,265.22175 1784.3895,257.90925 1779.1245,251.76675 C1773.8595,245.62425 1767.39525,240.82725 1759.73175,237.37575 C1752.06825,233.92425 1743.264,232.1985 1733.319,232.1985 C1727.469,232.1985 1722.05775,232.75425 1717.08525,233.86575 C1712.11275,234.97725 1707.49125,236.49825 1703.22075,238.42875 C1698.95025,240.35925 1694.943,242.7285 1691.199,245.5365 C1687.455,248.3445 1683.828,251.3865 1680.318,254.6625 L1680.318,254.6625 L1677.159,244.1325 C1676.223,241.0905 1674.61425,238.809 1672.33275,237.288 C1670.05125,235.767 1667.214,235.0065 1663.821,235.0065 L1663.821,235.0065 L1630.125,235.0065 L1630.125,417 L1684.53,417 Z M1888.587,419.808 C1897.947,419.808 1907.0145,418.49175 1915.7895,415.85925 C1924.5645,413.22675 1932.462,409.278 1939.482,404.013 L1939.482,404.013 L1922.985,378.2145 C1921.932,376.5765 1920.90825,375.37725 1919.91375,374.61675 C1918.91925,373.85625 1917.603,373.476 1915.965,373.476 C1914.795,373.476 1913.77125,373.68075 1912.89375,374.09025 C1912.01625,374.49975 1911.08025,374.96775 1910.08575,375.49425 C1909.09125,376.02075 1907.92125,376.48875 1906.57575,376.89825 C1905.23025,377.30775 1903.563,377.5125 1901.574,377.5125 C1897.713,377.5125 1894.75875,376.13775 1892.71125,373.38825 C1890.66375,370.63875 1889.64,367.158 1889.64,362.946 L1889.64,362.946 L1889.64,272.5635 L1933.866,272.5635 L1933.866,235.3575 L1889.64,235.3575 L1889.64,182.181 L1861.209,182.181 C1854.657,182.181 1850.679,184.989 1849.275,190.605 L1849.275,190.605 L1838.5695,235.0065 L1809.612,240.6225 L1809.612,261.858 C1809.612,265.368 1810.6065,268.02975 1812.5955,269.84325 C1814.5845,271.65675 1816.983,272.5635 1819.791,272.5635 L1819.791,272.5635 L1835.235,272.5635 L1835.235,366.6315 C1835.235,374.7045 1836.405,382.017 1838.745,388.569 C1841.085,395.121 1844.50725,400.70775 1849.01175,405.32925 C1853.51625,409.95075 1859.07375,413.51925 1865.68425,416.03475 C1872.29475,418.55025 1879.929,419.808 1888.587,419.808 Z M2059.6005,419.808 C2066.3865,419.808 2072.55825,419.223 2078.11575,418.053 C2083.67325,416.883 2088.909,415.15725 2093.823,412.87575 C2098.737,410.59425 2103.417,407.78625 2107.863,404.45175 C2112.309,401.11725 2116.872,397.344 2121.552,393.132 L2121.552,393.132 L2125.062,409.629 C2125.647,412.671 2126.8755,414.66 2128.7475,415.596 C2130.6195,416.532 2133.0765,417 2136.1185,417 L2136.1185,417 L2149.983,417 L2149.983,303.276 C2149.983,293.331 2148.6375,284.205 2145.9465,275.898 C2143.2555,267.591 2139.2775,260.5125 2134.0125,254.6625 C2128.7475,248.8125 2122.254,244.2495 2114.532,240.9735 C2106.81,237.6975 2097.9765,236.0595 2088.0315,236.0595 C2074.2255,236.0595 2061.648,238.3995 2050.299,243.0795 C2038.95,247.7595 2028.3615,254.838 2018.5335,264.315 L2018.5335,264.315 L2024.1495,274.3185 C2025.0855,275.9565 2026.34325,277.33125 2027.92275,278.44275 C2029.50225,279.55425 2031.345,280.11 2033.451,280.11 C2036.142,280.11 2038.86225,279.14475 2041.61175,277.21425 C2044.36125,275.28375 2047.63725,273.11925 2051.43975,270.72075 C2055.24225,268.32225 2059.74675,266.15775 2064.95325,264.22725 C2070.15975,262.29675 2076.5655,261.3315 2084.1705,261.3315 C2095.7535,261.3315 2104.49925,264.87075 2110.40775,271.94925 C2116.31625,279.02775 2119.2705,289.47 2119.2705,303.276 L2119.2705,303.276 L2119.2705,317.1405 C2099.1465,317.6085 2082.123,319.45125 2068.2,322.66875 C2054.277,325.88625 2043.01575,330.0105 2034.41625,335.0415 C2025.81675,340.0725 2019.5865,345.83475 2015.7255,352.32825 C2011.8645,358.82175 2009.934,365.5785 2009.934,372.5985 C2009.934,380.6715 2011.25025,387.66225 2013.88275,393.57075 C2016.51525,399.47925 2020.0545,404.364 2024.5005,408.225 C2028.9465,412.086 2034.18225,414.98175 2040.20775,416.91225 C2046.23325,418.84275 2052.6975,419.808 2059.6005,419.808 Z M2068.902,397.8705 C2064.807,397.8705 2061.0045,397.37325 2057.4945,396.37875 C2053.9845,395.38425 2050.9425,393.80475 2048.3685,391.64025 C2045.7945,389.47575 2043.747,386.697 2042.226,383.304 C2040.705,379.911 2039.9445,375.8745 2039.9445,371.1945 C2039.9445,366.2805 2041.37775,361.8345 2044.24425,357.8565 C2047.11075,353.8785 2051.703,350.427 2058.021,347.502 C2064.339,344.577 2072.529,342.20775 2082.591,340.39425 C2092.653,338.58075 2104.8795,337.44 2119.2705,336.972 L2119.2705,336.972 L2119.2705,374.0025 C2115.7605,377.7465 2112.16275,381.081 2108.47725,384.006 C2104.79175,386.931 2100.93075,389.41725 2096.89425,391.46475 C2092.85775,393.51225 2088.558,395.09175 2083.995,396.20325 C2079.432,397.31475 2074.401,397.8705 2068.902,397.8705 Z M2219.607,417 L2219.607,286.077 C2226.393,278.472 2233.79325,272.4465 2241.80775,268.0005 C2249.82225,263.5545 2258.451,261.3315 2267.694,261.3315 C2280.33,261.3315 2289.71925,265.04625 2295.86175,272.47575 C2302.00425,279.90525 2305.0755,290.3475 2305.0755,303.8025 L2305.0755,303.8025 L2305.0755,417 L2336.3145,417 L2336.3145,303.8025 C2336.3145,293.7405 2335.0275,284.556 2332.4535,276.249 C2329.8795,267.942 2326.10625,260.83425 2321.13375,254.92575 C2316.16125,249.01725 2309.96025,244.45425 2302.53075,241.23675 C2295.10125,238.01925 2286.531,236.4105 2276.82,236.4105 C2264.301,236.4105 2253.27375,239.043 2243.73825,244.308 C2234.20275,249.573 2225.574,256.476 2217.852,265.017 L2217.852,265.017 L2215.395,245.712 C2214.225,241.383 2211.417,239.2185 2206.971,239.2185 L2206.971,239.2185 L2188.368,239.2185 L2188.368,417 L2219.607,417 Z M2414.7135,419.808 C2421.4995,419.808 2427.67125,419.223 2433.22875,418.053 C2438.78625,416.883 2444.022,415.15725 2448.936,412.87575 C2453.85,410.59425 2458.53,407.78625 2462.976,404.45175 C2467.422,401.11725 2471.985,397.344 2476.665,393.132 L2476.665,393.132 L2480.175,409.629 C2480.76,412.671 2481.9885,414.66 2483.8605,415.596 C2485.7325,416.532 2488.1895,417 2491.2315,417 L2491.2315,417 L2505.096,417 L2505.096,303.276 C2505.096,293.331 2503.7505,284.205 2501.0595,275.898 C2498.3685,267.591 2494.3905,260.5125 2489.1255,254.6625 C2483.8605,248.8125 2477.367,244.2495 2469.645,240.9735 C2461.923,237.6975 2453.0895,236.0595 2443.1445,236.0595 C2429.3385,236.0595 2416.761,238.3995 2405.412,243.0795 C2394.063,247.7595 2383.4745,254.838 2373.6465,264.315 L2373.6465,264.315 L2379.2625,274.3185 C2380.1985,275.9565 2381.45625,277.33125 2383.03575,278.44275 C2384.61525,279.55425 2386.458,280.11 2388.564,280.11 C2391.255,280.11 2393.97525,279.14475 2396.72475,277.21425 C2399.47425,275.28375 2402.75025,273.11925 2406.55275,270.72075 C2410.35525,268.32225 2414.85975,266.15775 2420.06625,264.22725 C2425.27275,262.29675 2431.6785,261.3315 2439.2835,261.3315 C2450.8665,261.3315 2459.61225,264.87075 2465.52075,271.94925 C2471.42925,279.02775 2474.3835,289.47 2474.3835,303.276 L2474.3835,303.276 L2474.3835,317.1405 C2454.2595,317.6085 2437.236,319.45125 2423.313,322.66875 C2409.39,325.88625 2398.12875,330.0105 2389.52925,335.0415 C2380.92975,340.0725 2374.6995,345.83475 2370.8385,352.32825 C2366.9775,358.82175 2365.047,365.5785 2365.047,372.5985 C2365.047,380.6715 2366.36325,387.66225 2368.99575,393.57075 C2371.62825,399.47925 2375.1675,404.364 2379.6135,408.225 C2384.0595,412.086 2389.29525,414.98175 2395.32075,416.91225 C2401.34625,418.84275 2407.8105,419.808 2414.7135,419.808 Z M2424.015,397.8705 C2419.92,397.8705 2416.1175,397.37325 2412.6075,396.37875 C2409.0975,395.38425 2406.0555,393.80475 2403.4815,391.64025 C2400.9075,389.47575 2398.86,386.697 2397.339,383.304 C2395.818,379.911 2395.0575,375.8745 2395.0575,371.1945 C2395.0575,366.2805 2396.49075,361.8345 2399.35725,357.8565 C2402.22375,353.8785 2406.816,350.427 2413.134,347.502 C2419.452,344.577 2427.642,342.20775 2437.704,340.39425 C2447.766,338.58075 2459.9925,337.44 2474.3835,336.972 L2474.3835,336.972 L2474.3835,374.0025 C2470.8735,377.7465 2467.27575,381.081 2463.59025,384.006 C2459.90475,386.931 2456.04375,389.41725 2452.00725,391.46475 C2447.97075,393.51225 2443.671,395.09175 2439.108,396.20325 C2434.545,397.31475 2429.514,397.8705 2424.015,397.8705 Z M2578.23,417 L2578.23,158.4885 L2546.991,158.4885 L2546.991,417 L2578.23,417 Z M2665.2285,477.1965 C2668.5045,477.1965 2670.93225,476.4945 2672.51175,475.0905 C2674.09125,473.6865 2675.4075,471.8145 2676.4605,469.4745 L2676.4605,469.4745 L2775.618,239.2185 L2750.697,239.2185 C2748.708,239.2185 2746.86525,239.83275 2745.16875,241.06125 C2743.47225,242.28975 2742.273,243.84 2741.571,245.712 L2741.571,245.712 L2695.4145,357.5055 C2694.3615,360.1965 2693.4255,362.829 2692.6065,365.403 C2691.7875,367.977 2690.9685,370.6095 2690.1495,373.3005 C2689.5645,370.6095 2688.89175,367.977 2688.13125,365.403 C2687.37075,362.829 2686.464,360.255 2685.411,357.681 L2685.411,357.681 L2637.8505,245.712 C2637.1485,244.074 2636.037,242.58225 2634.516,241.23675 C2632.995,239.89125 2630.889,239.2185 2628.198,239.2185 L2628.198,239.2185 L2601.171,239.2185 L2674.53,406.6455 L2642.0625,477.1965 L2665.2285,477.1965 Z M2848.9275,419.808 C2857.0005,419.808 2864.8395,418.37475 2872.4445,415.50825 C2880.0495,412.64175 2886.543,408.693 2891.925,403.662 L2891.925,403.662 L2882.799,388.7445 C2881.512,386.7555 2880.0495,385.761 2878.4115,385.761 C2877.4755,385.761 2876.39325,386.19975 2875.16475,387.07725 C2873.93625,387.95475 2872.4445,388.92 2870.6895,389.973 C2868.9345,391.026 2866.85775,391.99125 2864.45925,392.86875 C2862.06075,393.74625 2859.2235,394.185 2855.9475,394.185 C2850.2145,394.185 2845.5345,392.3715 2841.9075,388.7445 C2838.2805,385.1175 2836.467,379.56 2836.467,372.072 L2836.467,372.072 L2836.467,265.368 L2887.362,265.368 L2887.362,242.7285 L2836.467,242.7285 L2836.467,181.479 L2820.672,181.479 C2818.683,181.479 2817.045,182.03475 2815.758,183.14625 C2814.471,184.25775 2813.7105,185.691 2813.4765,187.446 L2813.4765,187.446 L2806.281,242.3775 L2777.148,246.063 L2777.148,258.5235 C2777.148,260.8635 2777.7915,262.58925 2779.0785,263.70075 C2780.3655,264.81225 2781.945,265.368 2783.817,265.368 L2783.817,265.368 L2805.228,265.368 L2805.228,374.178 C2805.228,388.92 2809.00125,400.2105 2816.54775,408.0495 C2824.09425,415.8885 2834.8875,419.808 2848.9275,419.808 Z M2936.277,205.5225 C2939.319,205.5225 2942.1855,204.9375 2944.8765,203.7675 C2947.5675,202.5975 2949.93675,200.98875 2951.98425,198.94125 C2954.03175,196.89375 2955.66975,194.55375 2956.89825,191.92125 C2958.12675,189.28875 2958.741,186.4515 2958.741,183.4095 C2958.741,180.3675 2958.12675,177.47175 2956.89825,174.72225 C2955.66975,171.97275 2954.03175,169.57425 2951.98425,167.52675 C2949.93675,165.47925 2947.5675,163.8705 2944.8765,162.7005 C2942.1855,161.5305 2939.319,160.9455 2936.277,160.9455 C2933.235,160.9455 2930.39775,161.5305 2927.76525,162.7005 C2925.13275,163.8705 2922.79275,165.47925 2920.74525,167.52675 C2918.69775,169.57425 2917.089,171.97275 2915.919,174.72225 C2914.749,177.47175 2914.164,180.3675 2914.164,183.4095 C2914.164,186.4515 2914.749,189.28875 2915.919,191.92125 C2917.089,194.55375 2918.69775,196.89375 2920.74525,198.94125 C2922.79275,200.98875 2925.13275,202.5975 2927.76525,203.7675 C2930.39775,204.9375 2933.235,205.5225 2936.277,205.5225 Z M2951.721,417 L2951.721,239.2185 L2920.482,239.2185 L2920.482,417 L2951.721,417 Z M3063.6405,419.457 C3076.5105,419.457 3088.737,417.26325 3100.32,412.87575 C3111.903,408.48825 3121.5555,401.556 3129.2775,392.079 L3129.2775,392.079 L3120.5025,380.6715 C3119.2155,378.6825 3117.2265,377.688 3114.5355,377.688 C3112.4295,377.688 3110.3235,378.59475 3108.2175,380.40825 C3106.1115,382.22175 3103.4205,384.24 3100.1445,386.463 C3096.8685,388.686 3092.7735,390.70425 3087.8595,392.51775 C3082.9455,394.33125 3076.686,395.238 3069.081,395.238 C3061.125,395.238 3053.95875,393.74625 3047.58225,390.76275 C3041.20575,387.77925 3035.7945,383.45025 3031.3485,377.77575 C3026.9025,372.10125 3023.451,365.08125 3020.994,356.71575 C3018.537,348.35025 3017.3085,338.7855 3017.3085,328.0215 C3017.3085,317.7255 3018.44925,308.424 3020.73075,300.117 C3023.01225,291.81 3026.40525,284.7315 3030.90975,278.8815 C3035.41425,273.0315 3041.001,268.55625 3047.67,265.45575 C3054.339,262.35525 3062.0025,260.805 3070.6605,260.805 C3077.2125,260.805 3082.74075,261.53625 3087.24525,262.99875 C3091.74975,264.46125 3095.5815,266.07 3098.7405,267.825 C3101.8995,269.58 3104.50275,271.18875 3106.55025,272.65125 C3108.59775,274.11375 3110.499,274.845 3112.254,274.845 C3114.009,274.845 3115.3545,274.494 3116.2905,273.792 C3117.2265,273.09 3118.1625,272.0955 3119.0985,270.8085 L3119.0985,270.8085 L3127.347,259.5765 C3119.976,252.2055 3111.4935,246.50175 3101.8995,242.46525 C3092.3055,238.42875 3081.3075,236.4105 3068.9055,236.4105 C3055.4505,236.4105 3043.5165,238.692 3033.1035,243.255 C3022.6905,247.818 3013.94475,254.16525 3006.86625,262.29675 C2999.78775,270.42825 2994.40575,280.11 2990.72025,291.342 C2987.03475,302.574 2985.192,314.8005 2985.192,328.0215 C2985.192,342.5295 2987.21025,355.458 2991.24675,366.807 C2995.28325,378.156 3000.8115,387.72075 3007.8315,395.50125 C3014.8515,403.28175 3023.12925,409.2195 3032.66475,413.3145 C3042.20025,417.4095 3052.5255,419.457 3063.6405,419.457 Z M3197.322,419.808 C3208.203,419.808 3217.797,418.3455 3226.104,415.4205 C3234.411,412.4955 3241.431,408.48825 3247.164,403.39875 C3252.897,398.30925 3257.226,392.28375 3260.151,385.32225 C3263.076,378.36075 3264.5385,370.785 3264.5385,362.595 C3264.5385,355.458 3263.22225,349.34475 3260.58975,344.25525 C3257.95725,339.16575 3254.4765,334.866 3250.1475,331.356 C3245.8185,327.846 3240.9045,324.921 3235.4055,322.581 C3229.9065,320.241 3224.26125,318.10575 3218.46975,316.17525 C3212.67825,314.24475 3207.033,312.43125 3201.534,310.73475 C3196.035,309.03825 3191.121,307.0785 3186.792,304.8555 C3182.463,302.6325 3178.98225,300 3176.34975,296.958 C3173.71725,293.916 3172.401,290.1135 3172.401,285.5505 C3172.401,281.9235 3173.19075,278.55975 3174.77025,275.45925 C3176.34975,272.35875 3178.63125,269.6385 3181.61475,267.2985 C3184.59825,264.9585 3188.196,263.11575 3192.408,261.77025 C3196.62,260.42475 3201.3585,259.752 3206.6235,259.752 C3212.7075,259.752 3217.9725,260.42475 3222.4185,261.77025 C3226.8645,263.11575 3230.69625,264.57825 3233.91375,266.15775 C3237.13125,267.73725 3239.8515,269.1705 3242.0745,270.4575 C3244.2975,271.7445 3246.2865,272.388 3248.0415,272.388 C3250.9665,272.388 3253.131,271.101 3254.535,268.527 L3254.535,268.527 L3261.555,257.1195 C3254.769,250.6845 3246.72525,245.62425 3237.42375,241.93875 C3228.12225,238.25325 3217.6215,236.4105 3205.9215,236.4105 C3195.8595,236.4105 3186.909,237.8145 3179.07,240.6225 C3171.231,243.4305 3164.6205,247.20375 3159.2385,251.94225 C3153.8565,256.68075 3149.7615,262.17975 3146.9535,268.43925 C3144.1455,274.69875 3142.7415,281.2215 3142.7415,288.0075 C3142.7415,295.6125 3144.05775,302.07675 3146.69025,307.40025 C3149.32275,312.72375 3152.8035,317.199 3157.1325,320.826 C3161.4615,324.453 3166.40475,327.46575 3171.96225,329.86425 C3177.51975,332.26275 3183.19425,334.398 3188.98575,336.27 C3194.77725,338.142 3200.45175,339.92625 3206.00925,341.62275 C3211.56675,343.31925 3216.51,345.30825 3220.839,347.58975 C3225.168,349.87125 3228.64875,352.62075 3231.28125,355.83825 C3233.91375,359.05575 3235.23,363.1215 3235.23,368.0355 C3235.23,372.0135 3234.49875,375.7575 3233.03625,379.2675 C3231.57375,382.7775 3229.3215,385.878 3226.2795,388.569 C3223.2375,391.26 3219.435,393.39525 3214.872,394.97475 C3210.309,396.55425 3204.9855,397.344 3198.9015,397.344 C3191.7645,397.344 3185.82675,396.525 3181.08825,394.887 C3176.34975,393.249 3172.31325,391.4355 3168.97875,389.4465 C3165.64425,387.4575 3162.807,385.644 3160.467,384.006 C3158.127,382.368 3155.904,381.549 3153.798,381.549 C3151.692,381.549 3149.9955,381.9585 3148.7085,382.7775 C3147.4215,383.5965 3146.31,384.7665 3145.374,386.2875 L3145.374,386.2875 L3138.003,398.2215 C3145.023,404.5395 3153.564,409.71675 3163.626,413.75325 C3173.688,417.78975 3184.92,419.808 3197.322,419.808 Z" id="independentanalytics" fill="#5123A0" fill-rule="nonzero"></path>
                <g id="Icon" transform="translate(13.500000, 0.000000)">
                    <rect id="Neck-3" fill="#5123A0" transform="translate(346.161165, 93.338835) rotate(45.000000) translate(-346.161165, -93.338835) " x="336.161165" y="48.3388348" width="20" height="90"></rect>
                    <rect id="Neck-2" fill="#5123A0" transform="translate(220.000000, 108.000000) rotate(-60.000000) translate(-220.000000, -108.000000) " x="210" y="63" width="20" height="90"></rect>
                    <rect id="Neck-1" fill="#5123A0" transform="translate(94.161165, 124.338835) rotate(45.000000) translate(-94.161165, -124.338835) " x="84.1611652" y="79.3388348" width="20" height="90"></rect>
                    <circle id="Point-4" stroke="#5123A0" stroke-width="12" cx="403" cy="37" r="31"></circle>
                    <circle id="Point-3" stroke="#5123A0" stroke-width="12" cx="289" cy="149" r="31"></circle>
                    <circle id="Point-2" stroke="#5123A0" stroke-width="12" cx="151" cy="68" r="31"></circle>
                    <circle id="Point-1" fill="#5123A0" cx="37" cy="181" r="37"></circle>
                </g>
            </g>
        </g>
    </g>
</svg>