<?xml version="1.0" encoding="UTF-8" standalone="no"?>
<svg width="79px" height="95px" viewBox="0 0 79 95" version="1.1" xmlns="http://www.w3.org/2000/svg" xmlns:xlink="http://www.w3.org/1999/xlink" xmlns:sketch="http://www.bohemiancoding.com/sketch/ns">
    <!-- Generator: Sketch 3.0.2 (7799) - http://www.bohemiancoding.com/sketch -->
    <title>Path 6</title>
    <description>Created with Sketch.</description>
    <defs></defs>
    <g id="Page-1" stroke="none" stroke-width="1" fill="none" fill-rule="evenodd" sketch:type="MSPage">
        <path d="M33,0 C33,0 38,17 26,28 C14,39 22.9999996,30 8,46 C-8,60 1.42108547e-14,92 31,95 C30.9999996,95 4.99999848,70 40,48 C40.0000015,48 33.9999985,54 45,68 C45.0000015,68 59.9999985,79 48,95 C48.0000015,95 104,86 65,33 C65.0000015,33 58,39 58,39 C58,39 66.0000004,17 37,1 C37.0000015,1 33,0 33,0 Z" id="Path-6" fill="#E6A117" sketch:type="MSShapeGroup"></path>
    </g>
</svg>