<?xml version="1.0" encoding="UTF-8" standalone="no"?>
<svg width="43px" height="43px" viewBox="0 0 43 43" version="1.1" xmlns="http://www.w3.org/2000/svg" xmlns:xlink="http://www.w3.org/1999/xlink" xmlns:sketch="http://www.bohemiancoding.com/sketch/ns">
    <!-- Generator: Sketch 3.1 (8751) - http://www.bohemiancoding.com/sketch -->
    <title>logo pattern 4</title>
    <desc>Created with Sketch.</desc>
    <defs></defs>
    <g id="Page-1" stroke="none" stroke-width="1" fill="none" fill-rule="evenodd" sketch:type="MSPage">
        <g id="final" sketch:type="MSLayerGroup">
            <g id="logo-pattern-4" transform="translate(0.000000, 0.059226)" sketch:type="MSShapeGroup">
                <rect id="Rectangle-124" fill="#3A9CAB" transform="translate(5.957572, 21.545105) rotate(-45.000000) translate(-5.957572, -21.545105) " x="1.7558004" y="17.3001399" width="8.40354275" height="8.48993008"></rect>
                <rect id="Rectangle-123" fill="#3A9CAB" transform="translate(21.140787, 6.032450) rotate(-45.000000) translate(-21.140787, -6.032450) " x="16.9390159" y="1.78748513" width="8.40354275" height="8.48993008"></rect>
                <rect id="Rectangle-135" fill="#3A9CAB" transform="translate(28.655997, 13.805471) rotate(-45.000000) translate(-28.655997, -13.805471) " x="24.5025037" y="9.60928085" width="8.40354275" height="8.48993008"></rect>
                <rect id="Rectangle-141" fill="#3A9CAB" transform="translate(21.070246, 37.025211) rotate(-45.000000) translate(-21.070246, -37.025211) " x="16.9167528" y="32.8290205" width="8.40354275" height="8.48993008"></rect>
                <rect id="Rectangle-139" fill="#3A9CAB" transform="translate(28.628332, 29.294374) rotate(-45.000000) translate(-28.628332, -29.294374) " x="24.4748394" y="25.0981834" width="8.40354275" height="8.48993008"></rect>
                <rect id="Rectangle-138" fill="#3A9CAB" transform="translate(36.099756, 21.527657) rotate(-45.000000) translate(-36.099756, -21.527657) " x="31.9462629" y="17.3314664" width="8.40354275" height="8.48993008"></rect>
                <rect id="Rectangle-140" fill="#3A9CAB" transform="translate(13.357634, 29.315883) rotate(-45.000000) translate(-13.357634, -29.315883) " x="9.14806636" y="25.0839828" width="8.40354275" height="8.48993008"></rect>
                <rect id="Rectangle-136" fill="#3A9CAB" transform="translate(13.361427, 13.827093) rotate(-45.000000) translate(-13.361427, -13.827093) " x="9.15965551" y="9.58212815" width="8.40354275" height="8.48993008"></rect>
                <rect id="middle" fill="#4BCBDE" transform="translate(21.095672, 21.548643) rotate(-45.000000) translate(-21.095672, -21.548643) " x="18.2829158" y="18.7069715" width="5.69090086" height="5.74940259"></rect>
            </g>
        </g>
    </g>
</svg>