<?xml version="1.0" encoding="UTF-8"?>
<svg width="401px" height="122px" viewBox="0 0 401 122" version="1.1" xmlns="http://www.w3.org/2000/svg" xmlns:xlink="http://www.w3.org/1999/xlink">
    <title>Group</title>
    <g id="Page-1" stroke="none" stroke-width="1" fill="none" fill-rule="evenodd">
        <g id="Color-logo-with-background-Copy" transform="translate(0.764706, 0.764706)" fill-rule="nonzero">
            <g id="Group">
                <g id="Group" fill="#65D3A7">
                    <path d="M123.159375,72.9888264 L117.121112,66.9505635 C114.726994,64.5564453 110.574364,64.5564453 108.180246,66.9505635 L75.5524397,99.5783698 L71.0608196,116.061768 L69.9591015,117.163486 C69.1328129,117.989775 69.1328129,119.303362 69.9379146,120.150837 L69.9167277,120.193211 L69.9591015,120.172024 C70.3616524,120.574575 70.9125114,120.786444 71.4421836,120.786444 C71.9930427,120.786444 72.5227148,120.574575 72.9464526,120.172024 L74.0481707,119.070306 L90.531569,114.578686 L123.138188,81.9720665 C125.617054,79.4720138 125.617054,75.4676922 123.159375,72.9888264 Z M80.4466107,100.658901 L102.141983,78.9635285 L111.125223,87.9467687 L89.4510377,109.663328 L80.4466107,100.658901 Z M78.5397908,104.74797 L85.3619685,111.570148 L75.9761775,114.133761 L78.5397908,104.74797 Z M120.150837,78.9423417 L114.133761,84.9594176 L105.150521,75.9761775 L111.167597,69.9591015 C111.951512,69.1751867 113.32866,69.1751867 114.112574,69.9591015 L120.150837,75.9973643 C120.977126,76.8024661 120.977126,78.1372399 120.150837,78.9423417 Z" id="Shape"></path>
                    <path d="M76.2727939,67.798039 L95.3409923,67.798039 L95.3409923,44.4924631 L76.2727939,44.4924631 L72.0354164,44.4924631 L57.2045954,44.4924631 L52.967218,44.4924631 L38.1363969,44.4924631 L33.8990195,44.4924631 L14.830821,44.4924631 L14.830821,63.5606616 L14.830821,67.798039 L14.830821,82.62886 L14.830821,86.8662375 L14.830821,105.934436 L33.8990195,105.934436 L38.1363969,105.934436 L57.2045954,105.934436 L57.2045954,86.8662375 L76.2727939,86.8662375 L76.2727939,67.798039 Z M76.2727939,48.7298405 L91.1036149,48.7298405 L91.1036149,63.5606616 L76.2727939,63.5606616 L76.2727939,48.7298405 Z M38.1363969,48.7298405 L52.967218,48.7298405 L52.967218,63.5606616 L38.1363969,63.5606616 L38.1363969,48.7298405 Z M19.0681985,48.7298405 L33.8990195,48.7298405 L33.8990195,63.5606616 L19.0681985,63.5606616 L19.0681985,48.7298405 Z M19.0681985,67.798039 L33.8990195,67.798039 L33.8990195,82.62886 L19.0681985,82.62886 L19.0681985,67.798039 Z M33.8990195,101.697059 L19.0681985,101.697059 L19.0681985,86.8662375 L33.8990195,86.8662375 L33.8990195,101.697059 Z M52.967218,101.697059 L38.1363969,101.697059 L38.1363969,86.8662375 L52.967218,86.8662375 L52.967218,101.697059 Z M52.967218,82.62886 L38.1363969,82.62886 L38.1363969,67.798039 L52.967218,67.798039 L52.967218,82.62886 Z M72.0338846,67.798039 L72.0338846,82.62886 L57.2030635,82.62886 L57.2030635,67.798039 L72.0338846,67.798039 Z M72.0354164,48.7298405 L72.0354164,63.5606616 L57.2045954,63.5606616 L57.2045954,48.7298405 L72.0354164,48.7298405 Z" id="Shape"></path>
                    <path d="M55.0859067,116.52788 L4.23737744,116.52788 L4.23737744,33.8990195 L105.934436,33.8990195 L105.934436,61.4419728 C105.934436,62.6072516 106.887846,63.5606616 108.053125,63.5606616 C109.218403,63.5606616 110.171813,62.6072516 110.171813,61.4419728 L110.171813,31.7803308 L110.171813,10.5934436 C110.171813,9.4281648 109.218403,8.47475488 108.053125,8.47475488 L97.4596811,8.47475488 L97.4596811,2.11868872 C97.4596811,0.953409923 96.5062711,0 95.3409923,0 L80.5101713,0 C79.3448925,0 78.3914826,0.953409923 78.3914826,2.11868872 L78.3914826,8.47475488 L31.7803308,8.47475488 L31.7803308,2.11868872 C31.7803308,0.953409923 30.8269209,0 29.6616421,0 L14.830821,0 C13.6655422,0 12.7121323,0.953409923 12.7121323,2.11868872 L12.7121323,8.47475488 L2.11868872,8.47475488 C0.953409923,8.47475488 0,9.4281648 0,10.5934436 L0,31.7803308 L0,118.646568 C0,119.811847 0.953409923,120.765257 2.11868872,120.765257 L55.0859067,120.765257 C56.2511855,120.765257 57.2045954,119.811847 57.2045954,118.646568 C57.2045954,117.481289 56.2511855,116.52788 55.0859067,116.52788 Z M82.62886,4.23737744 L93.2223036,4.23737744 L93.2223036,10.5934436 L93.2223036,16.9495098 L82.62886,16.9495098 L82.62886,10.5934436 L82.62886,4.23737744 Z M16.9495098,4.23737744 L27.5429533,4.23737744 L27.5429533,10.5934436 L27.5429533,16.9495098 L16.9495098,16.9495098 L16.9495098,10.5934436 L16.9495098,4.23737744 Z M4.23737744,12.7121323 L12.7121323,12.7121323 L12.7121323,19.0681985 C12.7121323,20.2334773 13.6655422,21.1868872 14.830821,21.1868872 L29.6616421,21.1868872 C30.8269209,21.1868872 31.7803308,20.2334773 31.7803308,19.0681985 L31.7803308,12.7121323 L78.3914826,12.7121323 L78.3914826,19.0681985 C78.3914826,20.2334773 79.3448925,21.1868872 80.5101713,21.1868872 L95.3409923,21.1868872 C96.5062711,21.1868872 97.4596811,20.2334773 97.4596811,19.0681985 L97.4596811,12.7121323 L105.934436,12.7121323 L105.934436,29.6616421 L4.23737744,29.6616421 L4.23737744,12.7121323 Z" id="Shape"></path>
                </g>
                <g id="SvgjsG10836" transform="translate(150.000003, 12.500001)" fill="#000000">
                    <path d="M-4.34529506e-15,64.2857064 C0.195694692,62.1330648 0.864318224,59.9804232 2.0058706,57.8277816 C3.14742297,55.67514 4.50097792,53.9138877 6.06653546,52.5440249 C13.0463128,56.7840765 19.6673166,58.9041024 25.9295467,58.9041024 C28.6692724,58.9041024 30.675143,58.2844025 31.9471585,57.0450028 C33.219174,55.8056031 33.8551818,54.2726613 33.8551818,52.4461775 C33.8551818,49.380294 31.8003875,46.9667261 27.690799,45.2054739 L16.1448121,40.3131066 C11.6438342,38.2909281 8.18656129,35.8610524 5.77299342,33.0234793 C3.35942555,30.1859063 2.15264162,26.5818624 2.15264162,22.2113476 C2.15264162,19.2106956 2.75603358,16.4709699 3.96281752,13.9921705 C5.16960145,11.5133711 6.86562212,9.36072945 9.05087952,7.53424565 C11.2361369,5.70776186 13.8290916,4.28897534 16.8297435,3.2778861 C19.8303955,2.26679685 23.1572053,1.76125223 26.8101728,1.76125223 C34.116108,1.76125223 41.4872748,3.62035181 48.9236731,7.33855096 C48.5975153,12.3613814 46.836263,16.2752752 43.6399164,19.0802325 C36.9862968,15.8838859 31.1154561,14.2857125 26.0273941,14.2857125 C23.4181315,14.2857125 21.4611846,14.8727966 20.1565533,16.0469648 C18.851922,17.2211329 18.1996064,18.55838 18.1996064,20.058706 C18.1996064,22.602737 20.1239375,24.6575312 23.9725998,26.2230888 L35.7142813,31.2133034 C40.6718802,33.3007135 44.3737715,35.9752076 46.8199551,39.2367858 C49.2661388,42.498364 50.4892306,46.2817947 50.4892306,50.587078 C50.4892306,53.6529615 49.9347623,56.4579187 48.8258257,59.0019497 C47.7168891,61.5459807 46.0697921,63.747546 43.8845347,65.6066456 C41.6992773,67.4657452 38.9758595,68.9171475 35.7142813,69.9608525 C32.4527031,71.0045575 28.6366566,71.52641 24.2661418,71.52641 C15.7860385,71.52641 7.69732456,69.1128422 -4.34529506e-15,64.2857064 Z M87.4755275,21.1350268 C87.8669168,22.9615106 88.0626115,24.7879944 88.0626115,26.6144782 C88.0626115,28.4409619 87.8669168,30.23483 87.4755275,31.9960822 L75.8316933,31.8003875 L75.8316933,54.3052771 C75.8316933,57.3711606 77.2667877,58.9041024 80.1369765,58.9041024 L85.6164279,58.9041024 C86.4644382,61.2524387 86.8884434,63.4050803 86.8884434,65.3620272 C86.8884434,67.3189741 86.7579802,68.7214528 86.497054,69.5694631 C81.6699182,70.2217787 77.2341719,70.5479366 73.1898149,70.5479366 C64.9706378,70.5479366 60.8610493,66.0143429 60.8610493,56.9471555 L60.8610493,31.8982348 L53.2289563,31.9960822 C52.7723354,30.3652931 52.5440249,28.587733 52.5440249,26.6634018 C52.5440249,24.7390707 52.7723354,22.896279 53.2289563,21.1350268 L60.8610493,21.3307215 L60.8610493,15.6555754 C60.8610493,12.3287656 61.497057,9.96412142 62.7690725,8.56164279 C64.041088,7.15916416 66.1774218,6.45792485 69.1780737,6.45792485 L75.1467618,6.45792485 L75.8316933,7.14285627 L75.8316933,21.3307215 L87.4755275,21.1350268 Z M92.6614368,28.277883 C92.9875946,26.9732518 93.6072945,25.5218495 94.5205364,23.9236761 C95.4337783,22.3255028 96.3470202,21.1676425 97.2602621,20.4500953 C103.261566,20.9067163 107.436386,23.8747525 109.784722,29.3542038 C112.263522,23.4833631 116.340495,20.5479427 122.015641,20.5479427 C123.711661,20.5479427 125.864303,20.8088689 128.473565,21.3307215 C128.473565,23.3528999 128.1311,25.7501599 127.446168,28.5225014 C126.761237,31.2948429 125.831687,33.6594871 124.657519,35.616434 C123.548582,35.2250446 121.885178,34.8988868 119.667304,34.6379605 C116.405726,34.6379605 113.731232,36.3013654 111.643822,39.6281752 L111.643822,70.0586998 C109.49118,70.4500953 106.963457,70.6457839 104.060653,70.6457839 C101.157848,70.6457839 98.5975091,70.4500953 96.3796359,70.0586998 L96.3796359,38.454007 C96.3796359,33.5616397 95.1402362,30.1695984 92.6614368,28.277883 L92.6614368,28.277883 Z M154.011723,32.4853189 L154.011723,70.0586998 C152.902786,70.2543945 151.696002,70.4011655 150.391371,70.4990129 C149.08674,70.5968602 147.749493,70.6457839 146.37963,70.6457839 C145.009767,70.6457839 143.656212,70.5968602 142.318965,70.4990129 C140.981718,70.4011655 139.758626,70.2543945 138.649689,70.0586998 L138.649689,37.6712283 C138.649689,33.8877975 137.116748,31.9960822 134.050864,31.9960822 L132.583154,31.9960822 C132.191765,30.7566825 131.99607,29.028046 131.99607,26.8101728 C131.99607,24.6575312 132.191765,22.8310474 132.583154,21.3307215 C134.279175,21.2002583 135.844732,21.0861031 137.279827,20.9882557 C138.714921,20.8904084 140.019552,20.8414847 141.19372,20.8414847 L143.346362,20.8414847 C146.673172,20.8414847 149.282434,21.8851898 151.17415,23.9725998 C153.065865,26.0600099 154.011723,28.8975829 154.011723,32.4853189 L154.011723,32.4853189 Z M136.888437,1.56555754 C138.780153,0.521852513 141.226336,0 144.226988,0 C147.292872,0 149.673824,0.521852513 151.369844,1.56555754 C152.152623,3.32680977 152.544013,5.21852513 152.544013,7.24070361 C152.544013,9.2628821 152.152623,11.1545975 151.369844,12.9158497 C149.478129,13.8943232 146.99933,14.3835599 143.933446,14.3835599 C140.867563,14.3835599 138.519226,13.8943232 136.888437,12.9158497 C136.105658,11.1545975 135.714269,9.2628821 135.714269,7.24070361 C135.714269,5.21852513 136.105658,3.32680977 136.888437,1.56555754 Z M183.463774,58.4148656 L191.976493,21.3307215 C193.802977,20.9393321 195.857771,20.7436374 198.140876,20.7436374 C200.945833,20.7436374 203.392017,21.1350268 205.479427,21.9178055 L205.968664,22.602737 C199.315044,46.8688788 194.78145,62.6875331 192.367883,70.0586998 C189.041073,70.4500892 185.534876,70.6457839 181.849293,70.6457839 C178.163709,70.6457839 175.538139,70.1402393 173.972581,69.12915 C172.407024,68.1180608 171.20024,66.1774218 170.35223,63.307233 L158.610548,22.4070423 C161.806895,21.0371794 164.644468,20.352248 167.123267,20.352248 C169.602067,20.352248 171.526398,20.8904084 172.896261,21.9667292 C174.266123,23.04305 175.277213,24.8858417 175.929528,27.4951043 L180.332659,45.792558 C180.658817,47.0319577 181.376364,50.9784673 182.485301,57.6320869 C182.550532,58.1539394 182.87669,58.4148656 183.463774,58.4148656 Z M248.727954,50.587078 L223.189797,50.587078 C223.32026,53.5224983 224.070423,55.8056031 225.440286,57.4363922 C226.810148,59.0671813 229.060637,59.8825758 232.191752,59.8825758 C233.75731,59.8825758 235.567486,59.6542654 237.62228,59.1976444 C239.677074,58.7410235 242.041719,57.9908605 244.716213,56.9471555 C246.868854,59.1650286 248.206101,62.1656806 248.727954,65.9491113 C243.509429,69.6673105 237.116735,71.52641 229.549874,71.52641 C225.440286,71.52641 221.999321,70.8740944 219.226979,69.5694631 C216.454638,68.2648318 214.204149,66.438348 212.475512,64.0900117 C210.746876,61.7416754 209.523784,58.9693339 208.806237,55.7729873 C208.088689,52.5766407 207.729916,49.086752 207.729916,45.3033213 C207.729916,41.6503537 208.170229,38.2746202 209.050855,35.1761209 C209.931481,32.0776216 211.268728,29.3868196 213.062596,27.1037149 C214.856464,24.8206101 217.139569,23.0267421 219.91191,21.7221108 C222.684252,20.4174796 225.929522,19.7651639 229.647721,19.7651639 C232.778836,19.7651639 235.600102,20.2870164 238.111517,21.3307215 C240.622932,22.3744265 242.759266,23.8095209 244.520518,25.6360047 C246.28177,27.4624885 247.635325,29.6477459 248.581183,32.1917769 C249.527041,34.7358079 249.999969,37.5081494 249.999969,40.5088013 C249.999969,44.4879267 249.575964,47.8473523 248.727954,50.587078 L248.727954,50.587078 Z M223.091949,40.0195646 L236.007799,40.0195646 L236.007799,38.9432438 C236.007799,36.5296759 235.469638,34.5401132 234.393318,32.9745556 C233.316997,31.4089981 231.702516,30.6262193 229.549874,30.6262193 C227.462464,30.6262193 225.913214,31.3600744 224.902125,32.8277846 C223.891036,34.2954948 223.287644,36.6927548 223.091949,40.0195646 L223.091949,40.0195646 Z" id="Shape"></path>
                </g>
                <g id="SvgjsG10837" transform="translate(150.000001, 96.249999)" fill="#65D3A7">
                    <path d="M6.43979056,0 C7.3123909,0 8.12975565,0.162879581 8.89179753,0.488656194 C9.65383941,0.814432807 10.2792321,1.29144851 10.7678883,1.91972076 L9.37172772,2.98429318 C8.6154799,2.04188481 7.62076787,1.57068062 6.38743454,1.57068062 C5.04947642,1.57068062 3.94712041,2.04769633 3.08027922,3.00174519 C2.21343804,3.95579405 1.78010471,5.15410121 1.78010471,6.59685862 C1.78010471,7.99301917 2.20767888,9.14485163 3.06282722,10.052356 C3.91797556,10.9598604 5.026178,11.4136125 6.38743454,11.4136125 C7.74869108,11.4136125 8.82495634,10.8609598 9.61605582,9.75567187 L11.0296684,10.8202443 C10.5410122,11.4717801 9.88944151,11.9953752 9.0750436,12.3909249 C8.2606457,12.7864747 7.35314134,12.9842932 6.35253052,12.9842932 C5.16579405,12.9842932 4.08952878,12.696335 3.12390924,12.1204188 C2.1582897,11.5445026 1.39616055,10.7533158 0.837696333,9.74694587 C0.279232111,8.74057589 3.87512398e-15,7.68464221 3.87512398e-15,6.57940661 C3.87512398e-15,4.67137869 0.599179754,3.09773123 1.79755671,1.85863874 C2.99593367,0.619546246 4.54328096,0 6.43979056,0 L6.43979056,0 Z M23.1867364,1.74520069e-05 C25.0249563,1.74520069e-05 26.5579406,0.610820242 27.7853402,1.83247818 C29.0127399,3.05413612 29.626527,4.60734728 29.626527,6.49216403 C29.626527,7.69050609 29.3531064,8.78710294 28.8062826,9.78186734 C28.2594589,10.7766317 27.4886561,11.5590052 26.4938917,12.1291623 C25.4991273,12.6993193 24.396684,12.9843106 23.1867364,12.9843106 C21.9883943,12.9843106 20.8947643,12.702164 19.9057591,12.1378883 C18.9167539,11.5736125 18.1431064,10.7940837 17.5846422,9.79931934 C17.026178,8.80455495 16.7469458,7.70211167 16.7469458,6.49216403 C16.7469458,4.65394414 17.3490401,3.11223385 18.5532286,1.86738219 C19.757417,0.622530539 21.3019197,1.74520069e-05 23.1867364,1.74520069e-05 L23.1867364,1.74520069e-05 Z M18.5270506,6.49216403 C18.5270506,7.88832458 18.9633333,9.05760905 19.8359511,10.0000174 C20.7085689,10.9424258 21.8254799,11.41363 23.1867364,11.41363 C24.5246945,11.41363 25.6357765,10.9482373 26.5200697,10.0174694 C27.4043629,9.08670154 27.8464223,7.91153575 27.8464223,6.49216403 C27.8464223,5.08439789 27.4101221,3.91223385 26.5375217,2.97558463 C25.6649214,2.03893542 24.5422338,1.57069808 23.1692844,1.57069808 C21.8429319,1.57069808 20.7376963,2.03609074 19.8534031,2.96685863 C18.9691099,3.89762652 18.5270506,5.07279231 18.5270506,6.49216403 L18.5270506,6.49216403 Z M38.6945898,0.314153577 L45.5008725,10.4712216 L45.5357765,10.4712216 L45.5357765,0.314153577 L47.2111691,0.314153577 L47.2111691,12.6701745 L45.0820243,12.6701745 L38.2059336,2.51310645 L38.1710296,2.51310645 L38.1710296,12.6701745 L36.4956369,12.6701745 L36.4956369,0.314153577 L38.6945898,0.314153577 Z M63.0855146,0.314153577 L63.0855146,1.8848342 L59.1064571,1.8848342 L59.1064571,12.6701745 L57.4310644,12.6701745 L57.4310644,1.8848342 L53.4520068,1.8848342 L53.4520068,0.314153577 L63.0855146,0.314153577 L63.0855146,0.314153577 Z M77.3019195,0.314153577 L77.3019195,1.8848342 L71.001745,1.8848342 L71.001745,5.56720766 L76.8656193,5.56720766 L76.8656193,7.13788829 L71.001745,7.13788829 L71.001745,11.0994939 L77.6160556,11.0994939 L77.6160556,12.6701745 L69.3263523,12.6701745 L69.3263523,0.314153577 L77.3019195,0.314153577 Z M86.6492144,0.314153577 L93.4554971,10.4712216 L93.4904011,10.4712216 L93.4904011,0.314153577 L95.1657938,0.314153577 L95.1657938,12.6701745 L93.0366489,12.6701745 L86.1605582,2.51310645 L86.1256542,2.51310645 L86.1256542,12.6701745 L84.4502615,12.6701745 L84.4502615,0.314153577 L86.6492144,0.314153577 Z M111.040139,0.314153577 L111.040139,1.8848342 L107.061082,1.8848342 L107.061082,12.6701745 L105.385689,12.6701745 L105.385689,1.8848342 L101.406631,1.8848342 L101.406631,0.314153577 L111.040139,0.314153577 Z M132.26527,0 C133.13787,0 133.955235,0.162879581 134.717277,0.488656194 C135.479319,0.814432807 136.104712,1.29144851 136.593368,1.91972076 L135.197207,2.98429318 C134.440959,2.04188481 133.446247,1.57068062 132.212914,1.57068062 C130.874956,1.57068062 129.7726,2.04769633 128.905759,3.00174519 C128.038918,3.95579405 127.605584,5.15410121 127.605584,6.59685862 C127.605584,7.99301917 128.033158,9.14485163 128.888307,10.052356 C129.743455,10.9598604 130.851658,11.4136125 132.212914,11.4136125 C133.574171,11.4136125 134.650436,10.8609598 135.441535,9.75567187 L136.855148,10.8202443 C136.366492,11.4717801 135.714921,11.9953752 134.900523,12.3909249 C134.086125,12.7864747 133.178621,12.9842932 132.17801,12.9842932 C130.991274,12.9842932 129.915008,12.696335 128.949389,12.1204188 C127.983769,11.5445026 127.22164,10.7533158 126.663176,9.74694587 C126.104712,8.74057589 125.82548,7.68464221 125.82548,6.57940661 C125.82548,4.67137869 126.424659,3.09773123 127.623036,1.85863874 C128.821413,0.619546246 130.368761,0 132.26527,0 L132.26527,0 Z M148.732984,0.314153577 L154.020942,12.6701745 L152.066317,12.6701745 L150.827225,9.61607327 L144.945898,9.61607327 L143.724258,12.6701745 L141.769633,12.6701745 L147.214659,0.314153577 L148.732984,0.314153577 Z M145.539267,8.15010469 L150.216404,8.15010469 L147.91274,2.47820244 L147.877836,2.47820244 L145.539267,8.15010469 Z M161.762652,0.314153577 L161.762652,11.0994939 L167.434554,11.0994939 L167.434554,12.6701745 L160.08726,12.6701745 L160.08726,0.314153577 L161.762652,0.314153577 Z M181.581151,0.314153577 L181.581151,1.8848342 L175.280977,1.8848342 L175.280977,5.56720766 L181.144851,5.56720766 L181.144851,7.13788829 L175.280977,7.13788829 L175.280977,11.0994939 L181.895287,11.0994939 L181.895287,12.6701745 L173.605584,12.6701745 L173.605584,0.314153577 L181.581151,0.314153577 L181.581151,0.314153577 Z M190.928446,0.314153577 L197.734729,10.4712216 L197.769633,10.4712216 L197.769633,0.314153577 L199.445026,0.314153577 L199.445026,12.6701745 L197.315881,12.6701745 L190.43979,2.51310645 L190.404886,2.51310645 L190.404886,12.6701745 L188.729493,12.6701745 L188.729493,0.314153577 L190.928446,0.314153577 L190.928446,0.314153577 Z M211.200697,0.314153577 C212.515444,0.314153577 213.655671,0.584659684 214.621291,1.1256719 C215.58691,1.66668411 216.325741,2.40839441 216.837696,3.35080278 C217.34965,4.29321116 217.605584,5.34033157 217.605584,6.49216403 C217.605584,7.64399649 217.32054,8.69408374 216.750436,9.64225128 C216.180331,10.5904188 215.383333,11.3322164 214.359511,11.8673822 C213.335689,12.402548 212.195462,12.6701745 210.938917,12.6701745 L206.802792,12.6701745 L206.802792,0.314153577 L211.200697,0.314153577 L211.200697,0.314153577 Z M210.677137,11.0994939 C211.619546,11.0994939 212.48342,10.9162303 213.26876,10.5497382 C214.054101,10.183246 214.676526,9.65680625 215.136125,8.97033156 C215.595724,8.28385687 215.825479,7.45785338 215.825479,6.49214658 C215.825479,5.09598602 215.392094,3.97905758 214.525305,3.14136125 C213.658516,2.30366491 212.509598,1.88481675 211.078533,1.88481675 L208.478184,1.88481675 L208.478184,11.0994939 L210.677137,11.0994939 L210.677137,11.0994939 Z M229.867364,0.314153577 L235.155322,12.6701745 L233.200697,12.6701745 L231.961605,9.61607327 L226.080279,9.61607327 L224.858638,12.6701745 L222.904013,12.6701745 L228.349039,0.314153577 L229.867364,0.314153577 Z M226.673647,8.15010469 L231.350785,8.15010469 L229.04712,2.47820244 L229.012216,2.47820244 L226.673647,8.15010469 Z M245.65445,0.314153577 C246.864484,0.314153577 247.812739,0.616649213 248.499127,1.22165794 C249.185514,1.82666666 249.528795,2.67602093 249.528795,3.76965095 C249.528795,4.59570679 249.246648,5.31703314 248.682373,5.93369981 C248.118097,6.55036647 247.393804,6.91685862 246.509598,7.03317624 L246.492146,7.03317624 L249.999999,12.6701745 L247.905758,12.6701745 L244.764397,7.22514832 L242.897032,7.22514832 L242.897032,12.6701745 L241.22164,12.6701745 L241.22164,0.314153577 L245.65445,0.314153577 L245.65445,0.314153577 Z M245.165793,5.75917974 C246.038394,5.75917974 246.686998,5.59917974 247.111692,5.2792321 C247.536387,4.95928445 247.74869,4.45609074 247.74869,3.7696335 C247.74869,2.44328097 246.88773,1.78010471 245.165793,1.78010471 L242.897032,1.78010471 L242.897032,5.75917974 L245.165793,5.75917974 L245.165793,5.75917974 Z" id="Shape"></path>
                </g>
            </g>
        </g>
    </g>
</svg>